<svg width="246" height="34" viewBox="0 0 246 34" fill="none" xmlns="http://www.w3.org/2000/svg">
<path d="M0.52356 1.28555H21.5236V7.08555H8.12356V13.5355H20.2236V19.2855H8.12356V26.9855H21.6736V32.7855H0.52356V1.28555Z" fill="white"/>
<path d="M42.8454 27.5355C44.3454 27.5355 45.6121 27.4022 46.6454 27.1355C47.6788 26.8689 48.5454 26.5189 49.2454 26.0855L50.7454 31.5355C50.0788 31.9355 48.9954 32.3355 47.4954 32.7355C46.0288 33.1355 44.2121 33.3355 42.0454 33.3355C39.5788 33.3355 37.3121 32.9522 35.2454 32.1855C33.1788 31.4189 31.4121 30.3355 29.9454 28.9355C28.4788 27.5022 27.3288 25.7855 26.4954 23.7855C25.6954 21.7522 25.2954 19.4855 25.2954 16.9855C25.2954 14.5522 25.6788 12.3355 26.4454 10.3355C27.2454 8.30221 28.3621 6.58555 29.7954 5.18555C31.2621 3.75221 33.0288 2.65221 35.0954 1.88555C37.1954 1.08555 39.5454 0.685547 42.1454 0.685547C44.3454 0.685547 46.1288 0.902214 47.4954 1.33555C48.8954 1.73555 49.9954 2.15221 50.7954 2.58555L49.0954 8.13555C48.3288 7.70221 47.4121 7.31888 46.3454 6.98555C45.3121 6.65221 44.1621 6.48555 42.8954 6.48555C41.5621 6.48555 40.3121 6.68555 39.1454 7.08555C37.9788 7.45221 36.9621 8.05221 36.0954 8.88555C35.2288 9.71888 34.5454 10.8022 34.0454 12.1355C33.5454 13.4355 33.2954 15.0355 33.2954 16.9355C33.2954 18.7022 33.5288 20.2522 33.9954 21.5855C34.4954 22.9189 35.1788 24.0355 36.0454 24.9355C36.9121 25.8022 37.9121 26.4522 39.0454 26.8855C40.2121 27.3189 41.4788 27.5355 42.8454 27.5355Z" fill="white"/>
<path d="M69.9564 0.685547C72.223 0.685547 74.323 1.06888 76.2564 1.83555C78.1897 2.56888 79.8564 3.63555 81.2564 5.03555C82.6564 6.43555 83.7397 8.15221 84.5064 10.1855C85.3064 12.2189 85.7064 14.5189 85.7064 17.0855C85.7064 19.5855 85.2897 21.8355 84.4564 23.8355C83.6564 25.8355 82.5397 27.5522 81.1064 28.9855C79.7064 30.3855 78.023 31.4689 76.0564 32.2355C74.123 32.9689 72.023 33.3355 69.7564 33.3355C67.4897 33.3355 65.3897 32.9689 63.4564 32.2355C61.523 31.5022 59.8564 30.4522 58.4564 29.0855C57.0564 27.6855 55.9564 25.9855 55.1564 23.9855C54.3897 21.9522 54.0064 19.6522 54.0064 17.0855C54.0064 14.5855 54.4064 12.3355 55.2064 10.3355C56.0064 8.30221 57.123 6.56888 58.5564 5.13555C59.9897 3.70221 61.673 2.60221 63.6064 1.83555C65.573 1.06888 67.6897 0.685547 69.9564 0.685547ZM62.0064 17.0855C62.0064 18.8522 62.2064 20.4022 62.6064 21.7355C63.0397 23.0689 63.623 24.1689 64.3564 25.0355C65.0897 25.9022 65.923 26.5522 66.8564 26.9855C67.823 27.4189 68.8564 27.6355 69.9564 27.6355C71.023 27.6355 72.023 27.4189 72.9564 26.9855C73.923 26.5522 74.7564 25.9022 75.4564 25.0355C76.1564 24.1689 76.7064 23.0689 77.1064 21.7355C77.5064 20.4022 77.7064 18.8522 77.7064 17.0855C77.7064 15.2522 77.4897 13.6689 77.0564 12.3355C76.6564 10.9689 76.0897 9.85221 75.3564 8.98555C74.623 8.11888 73.773 7.46888 72.8064 7.03555C71.873 6.60221 70.8564 6.38555 69.7564 6.38555C68.6897 6.38555 67.673 6.61888 66.7064 7.08555C65.773 7.51888 64.9564 8.18555 64.2564 9.08555C63.5564 9.98555 63.0064 11.1022 62.6064 12.4355C62.2064 13.7689 62.0064 15.3189 62.0064 17.0855Z" fill="white"/>
<path d="M106.454 0.685547C108.454 0.685547 110.221 0.852213 111.754 1.18555C113.321 1.51888 114.704 1.96888 115.904 2.53555L114.354 7.53555C113.221 6.96888 112.021 6.56888 110.754 6.33555C109.521 6.06888 108.321 5.93555 107.154 5.93555C105.821 5.93555 104.571 6.15221 103.404 6.58555C102.238 7.01888 101.204 7.70221 100.304 8.63555C99.4378 9.53555 98.7544 10.6855 98.2544 12.0855C97.7544 13.4855 97.5044 15.1522 97.5044 17.0855C97.5044 20.6189 98.2711 23.3355 99.8044 25.2355C101.371 27.1022 103.604 28.0355 106.504 28.0355C107.204 28.0355 107.838 28.0022 108.404 27.9355C108.971 27.8689 109.404 27.7689 109.704 27.6355V20.7855H104.754V15.1855H117.004V31.3855C115.704 31.9522 114.171 32.4189 112.404 32.7855C110.638 33.1522 108.654 33.3355 106.454 33.3355C104.054 33.3355 101.821 32.9855 99.7544 32.2855C97.7211 31.5855 95.9378 30.5522 94.4044 29.1855C92.8711 27.7855 91.6711 26.0855 90.8044 24.0855C89.9378 22.0522 89.5044 19.7189 89.5044 17.0855C89.5044 14.4522 89.9378 12.1189 90.8044 10.0855C91.6711 8.01888 92.8711 6.30221 94.4044 4.93555C95.9378 3.53555 97.7211 2.48555 99.7544 1.78555C101.821 1.05221 104.054 0.685547 106.454 0.685547Z" fill="white"/>
<path d="M122.692 1.28555H130.292V20.1355C130.292 22.5022 130.775 24.3355 131.742 25.6355C132.708 26.9355 134.208 27.5855 136.242 27.5855C138.242 27.5855 139.675 26.9522 140.542 25.6855C141.442 24.3855 141.892 22.7355 141.892 20.7355V1.28555H149.492V20.0855C149.492 28.9189 145.075 33.3355 136.242 33.3355C132.042 33.3355 128.725 32.2355 126.292 30.0355C123.892 27.8355 122.692 24.4355 122.692 19.8355V1.28555Z" fill="white"/>
<path d="M165.04 1.28555H173.14L184.49 32.7855H176.44L174.29 26.0355H163.69L161.54 32.7855H153.59L165.04 1.28555ZM165.34 20.5355H172.54L171.34 16.7355C170.94 15.5022 170.523 14.1855 170.09 12.7855C169.69 11.3855 169.34 10.1022 169.04 8.93555H168.94C168.607 10.1022 168.223 11.3689 167.79 12.7355C167.357 14.1022 166.94 15.4355 166.54 16.7355L165.34 20.5355Z" fill="white"/>
<path d="M188.707 1.28555H201.207C203.007 1.28555 204.59 1.55221 205.957 2.08555C207.357 2.58555 208.507 3.28555 209.407 4.18555C210.34 5.08555 211.04 6.13555 211.507 7.33555C211.974 8.53555 212.207 9.81888 212.207 11.1855C212.207 12.4855 212.007 13.6355 211.607 14.6355C211.24 15.6022 210.757 16.4522 210.157 17.1855C209.557 17.9189 208.907 18.5189 208.207 18.9855C207.507 19.4522 206.857 19.8189 206.257 20.0855L213.807 32.7855H205.057L199.457 21.4355H196.307V32.7855H188.707V1.28555ZM196.307 15.6855H198.607C200.34 15.6855 201.74 15.3355 202.807 14.6355C203.874 13.9355 204.407 12.8022 204.407 11.2355C204.407 9.93555 203.974 8.90221 203.107 8.13555C202.24 7.36888 200.99 6.98555 199.357 6.98555H196.307V15.6855Z" fill="white"/>
<path d="M229.108 1.28555C231.608 1.28555 233.874 1.60221 235.908 2.23555C237.941 2.86888 239.674 3.81888 241.108 5.08555C242.574 6.35221 243.691 7.93555 244.458 9.83555C245.258 11.7022 245.658 13.8855 245.658 16.3855C245.658 19.1855 245.191 21.6189 244.258 23.6855C243.324 25.7189 242.041 27.4189 240.408 28.7855C238.808 30.1189 236.924 31.1189 234.758 31.7855C232.591 32.4522 230.291 32.7855 227.858 32.7855H217.858V1.28555H229.108ZM225.458 26.9855H227.408C228.741 26.9855 230.024 26.8189 231.258 26.4855C232.524 26.1522 233.624 25.5855 234.558 24.7855C235.491 23.9522 236.241 22.8522 236.808 21.4855C237.374 20.1189 237.658 18.4189 237.658 16.3855C237.658 13.3522 236.808 11.0522 235.108 9.48555C233.408 7.88555 231.108 7.08555 228.208 7.08555H225.458V26.9855Z" fill="white"/>
</svg>
