<svg width="62" height="63" viewBox="0 0 62 63" fill="none" xmlns="http://www.w3.org/2000/svg">
<path d="M15.0364 1.3281C-1.37607 26.018 -8.02833 45.57 19.7372 55.7045C20.1668 55.8613 20.6176 55.4909 20.5323 55.0416C17.7169 40.2149 16.8707 31.3731 17.7561 16.8507L24.6862 46.2914C24.7782 46.6821 25.3805 46.6487 25.4456 46.2527C27.1059 36.1531 32.426 33.5235 39.8077 30.157C40.0982 30.0246 40.2314 29.6798 40.1091 29.385C34.5902 16.0849 30.1424 11.4729 15.8858 1.1765C15.6133 0.979653 15.2225 1.04811 15.0364 1.3281Z" fill="white"/>
<path d="M60.7794 32.295C38.4256 32.3055 28.0834 39.3747 31.8927 57.8676C31.9458 58.1251 32.2529 58.2438 32.4597 58.0814L46.737 46.8635C47.0598 46.6098 47.485 47.0131 47.2487 47.3488L37.6503 60.9886C37.5084 61.1903 37.6176 61.4739 37.8563 61.5356C54.6416 65.8773 62.2132 53.0277 61.1386 32.6341C61.1287 32.4458 60.968 32.2949 60.7794 32.295Z" fill="white"/>
<path d="M15.0364 1.3281C-1.37607 26.018 -8.02833 45.57 19.7372 55.7045C20.1668 55.8613 20.6176 55.4909 20.5323 55.0416C17.7169 40.2149 16.8707 31.3731 17.7561 16.8507L24.6862 46.2914C24.7782 46.6821 25.3805 46.6487 25.4456 46.2527C27.1059 36.1531 32.426 33.5235 39.8077 30.157C40.0982 30.0246 40.2314 29.6798 40.1091 29.385C34.5902 16.0849 30.1424 11.4729 15.8858 1.1765C15.6133 0.979653 15.2225 1.04811 15.0364 1.3281Z" stroke="white" stroke-width="1.18805"/>
<path d="M60.7794 32.295C38.4256 32.3055 28.0834 39.3747 31.8927 57.8676C31.9458 58.1251 32.2529 58.2438 32.4597 58.0814L46.737 46.8635C47.0598 46.6098 47.485 47.0131 47.2487 47.3488L37.6503 60.9886C37.5084 61.1903 37.6176 61.4739 37.8563 61.5356C54.6416 65.8773 62.2132 53.0277 61.1386 32.6341C61.1287 32.4458 60.968 32.2949 60.7794 32.295Z" stroke="white" stroke-width="1.18805"/>
</svg>
